<svg width="800" height="600" xmlns="http://www.w3.org/2000/svg">
 <g>
  <title>Layer 1</title>
  <path fill="#fff" id="svg_2" d="m126.99999,253.02325c1.14398,-11.89022 2.59535,-19.72117 8.00789,-32.39057c3.64663,-8.53584 12.56196,-20.10827 20.30572,-25.42044c8.57572,-5.88289 22.27361,-9.26162 32.88954,-9.43016c14.61011,-0.23196 26.31576,1.33292 36.60749,6.15011c16.0658,7.51981 25.00828,16.908 32.60355,28.29049c9.05531,13.57054 11.72051,25.59287 12.86982,42.64075c0.68783,10.20263 -1.71419,21.79272 -8.00789,31.57055c-4.69505,7.29419 -10.99999,13.88028 -22.02169,19.27034c-7.22266,3.53216 -19.26481,1.66264 -28.02761,-2.87005c-13.03847,-6.74433 -32.75379,-20.28604 -45.18737,-35.67062c-17.30563,-21.41296 -25.74416,-37.0141 -30.02958,-49.20086c-3.99311,-11.35549 -4.3575,-18.24164 -2.85996,-25.83045c1.01209,-5.1288 3.73089,-10.88781 13.15582,-15.58027c9.90818,-4.93306 24.93362,-7.68344 50.0493,-5.33009c18.16193,1.70178 41.21617,13.77075 49.47731,27.06047c8.28957,13.33547 12.86706,39.18225 10.86785,55.35097c-3.03146,24.51708 -9.64912,37.84074 -15.72978,45.51079c-6.01587,7.58832 -11.79335,7.57462 -22.02169,-2.87005c-11.39522,-11.63623 -25.83081,-33.95921 -48.04733,-68.88121c-12.98118,-20.40503 -26.03412,-34.54183 -27.45561,-50.02087c-0.57952,-6.31057 9.08367,-13.8365 23.16568,-14.35025c16.89009,-0.6162 39.36776,11.92151 43.47139,25.01044c5.8635,18.7022 0.286,31.98056 -3.71795,41.82073l-10.29586,4.92009l-13.72781,0" stroke-dasharray="2,2" stroke-width="0" stroke="#000"/>
  <path fill="#9ACEE6" stroke="#000" opacity="undefined" d="m191.8,296.2c-29.83425,0 -54,-25.06077 -54,-56c0,-30.93923 24.16575,-56 54,-56c29.83425,0 54,25.06077 54,56c0,30.93923 -24.16575,56 -54,56z" id="svg_3"/>
  <path transform="rotate(89.6656 190.54 242.978)" stroke="#000" fill="#ffffff" d="m160.04016,243.07278l30.50001,39.37485l30.50001,-39.37485l-15.25,0l0,-39.56432l-30.5,0l0,39.56432l-15.25,0l-0.00002,0z" id="svg_4"/>
 </g>

</svg>